<mxfile host="app.diagrams.net" agent="Mozilla/5.0 (Windows NT 10.0; Win64; x64) AppleWebKit/537.36 (KHTML, like Gecko) Chrome/141.0.0.0 Safari/537.36" version="28.2.8">
  <diagram name="PÃ¡gina-1" id="lB5U5YleSX4vI3e-jrh1">
    <mxGraphModel grid="1" page="1" gridSize="10" guides="1" tooltips="1" connect="1" arrows="1" fold="1" pageScale="1" pageWidth="827" pageHeight="1169" math="0" shadow="0">
      <root>
        <mxCell id="0" />
        <mxCell id="1" parent="0" />
        <mxCell id="2iQ_Jy4r_UCa0t72AQ21-39" value="" style="rounded=0;whiteSpace=wrap;html=1;fillColor=none;dashed=1;" vertex="1" parent="1">
          <mxGeometry x="50" y="80" width="980" height="580" as="geometry" />
        </mxCell>
        <mxCell id="2iQ_Jy4r_UCa0t72AQ21-34" value="" style="rounded=1;whiteSpace=wrap;html=1;arcSize=6;dashed=1;fillColor=none;fontSize=13;fontColor=#333333;strokeColor=#666666;" vertex="1" parent="1">
          <mxGeometry x="110" y="140" width="420" height="470" as="geometry" />
        </mxCell>
        <mxCell id="2iQ_Jy4r_UCa0t72AQ21-37" value="" style="rounded=1;whiteSpace=wrap;html=1;arcSize=6;dashed=1;fillColor=none;fontColor=#333333;strokeColor=#666666;" vertex="1" parent="1">
          <mxGeometry x="550" y="140" width="420" height="470" as="geometry" />
        </mxCell>
        <mxCell id="2iQ_Jy4r_UCa0t72AQ21-1" value="&lt;font style=&quot;font-size: 14px;&quot;&gt;&lt;b&gt;crm_cust_info&lt;/b&gt;&lt;/font&gt;" style="swimlane;fontStyle=0;childLayout=stackLayout;horizontal=1;startSize=30;horizontalStack=0;resizeParent=1;resizeParentMax=0;resizeLast=0;collapsible=1;marginBottom=0;whiteSpace=wrap;html=1;rounded=1;fillColor=#dae8fc;strokeColor=#6c8ebf;" vertex="1" parent="1">
          <mxGeometry x="340" y="420" width="160" height="135" as="geometry">
            <mxRectangle x="240" y="210" width="120" height="30" as="alternateBounds" />
          </mxGeometry>
        </mxCell>
        <mxCell id="2iQ_Jy4r_UCa0t72AQ21-2" value="cst_id" style="text;align=left;verticalAlign=middle;spacingLeft=4;spacingRight=4;overflow=hidden;points=[[0,0.5],[1,0.5]];portConstraint=eastwest;rotatable=0;whiteSpace=wrap;html=1;" vertex="1" parent="2iQ_Jy4r_UCa0t72AQ21-1">
          <mxGeometry y="30" width="160" height="40" as="geometry" />
        </mxCell>
        <mxCell id="2iQ_Jy4r_UCa0t72AQ21-23" value="cst_key" style="text;align=left;verticalAlign=middle;spacingLeft=4;spacingRight=4;overflow=hidden;points=[[0,0.5],[1,0.5]];portConstraint=eastwest;rotatable=0;whiteSpace=wrap;html=1;" vertex="1" parent="2iQ_Jy4r_UCa0t72AQ21-1">
          <mxGeometry y="70" width="160" height="40" as="geometry" />
        </mxCell>
        <mxCell id="7bPmjpjhORHY4d73VNTJ-3" value="CUSTOMER" style="rounded=0;whiteSpace=wrap;html=1;fillColor=#e6d0de;strokeColor=#996185;fontStyle=1;gradientColor=#d5739d;" vertex="1" parent="2iQ_Jy4r_UCa0t72AQ21-1">
          <mxGeometry y="110" width="160" height="25" as="geometry" />
        </mxCell>
        <mxCell id="2iQ_Jy4r_UCa0t72AQ21-5" value="Customer Information" style="text;html=1;whiteSpace=wrap;strokeColor=none;fillColor=none;align=center;verticalAlign=middle;rounded=0;" vertex="1" parent="1">
          <mxGeometry x="355" y="390" width="130" height="30" as="geometry" />
        </mxCell>
        <mxCell id="2iQ_Jy4r_UCa0t72AQ21-11" value="&lt;font style=&quot;font-size: 14px;&quot;&gt;&lt;b&gt;crm_prd_info&lt;/b&gt;&lt;/font&gt;" style="swimlane;fontStyle=0;childLayout=stackLayout;horizontal=1;startSize=30;horizontalStack=0;resizeParent=1;resizeParentMax=0;resizeLast=0;collapsible=1;marginBottom=0;whiteSpace=wrap;html=1;rounded=1;fillColor=#dae8fc;strokeColor=#6c8ebf;" vertex="1" parent="1">
          <mxGeometry x="340" y="210" width="160" height="95" as="geometry">
            <mxRectangle x="240" y="210" width="120" height="30" as="alternateBounds" />
          </mxGeometry>
        </mxCell>
        <mxCell id="2iQ_Jy4r_UCa0t72AQ21-12" value="prd_key" style="text;align=left;verticalAlign=middle;spacingLeft=4;spacingRight=4;overflow=hidden;points=[[0,0.5],[1,0.5]];portConstraint=eastwest;rotatable=0;whiteSpace=wrap;html=1;" vertex="1" parent="2iQ_Jy4r_UCa0t72AQ21-11">
          <mxGeometry y="30" width="160" height="40" as="geometry" />
        </mxCell>
        <mxCell id="7bPmjpjhORHY4d73VNTJ-1" value="PRODUCT" style="rounded=0;whiteSpace=wrap;html=1;fillColor=#fff2cc;strokeColor=#d6b656;fontStyle=1;gradientColor=#ffd966;" vertex="1" parent="2iQ_Jy4r_UCa0t72AQ21-11">
          <mxGeometry y="70" width="160" height="25" as="geometry" />
        </mxCell>
        <mxCell id="2iQ_Jy4r_UCa0t72AQ21-13" value="Current &amp;amp; History Product Information" style="text;html=1;whiteSpace=wrap;strokeColor=none;fillColor=none;align=center;verticalAlign=middle;rounded=0;" vertex="1" parent="1">
          <mxGeometry x="355" y="180" width="130" height="30" as="geometry" />
        </mxCell>
        <mxCell id="2iQ_Jy4r_UCa0t72AQ21-14" value="&lt;font style=&quot;font-size: 14px;&quot;&gt;&lt;b&gt;crm_sales_datails&lt;/b&gt;&lt;/font&gt;" style="swimlane;fontStyle=0;childLayout=stackLayout;horizontal=1;startSize=30;horizontalStack=0;resizeParent=1;resizeParentMax=0;resizeLast=0;collapsible=1;marginBottom=0;whiteSpace=wrap;html=1;rounded=1;fillColor=#dae8fc;strokeColor=#6c8ebf;" vertex="1" parent="1">
          <mxGeometry x="130" y="290" width="160" height="135" as="geometry">
            <mxRectangle x="240" y="210" width="120" height="30" as="alternateBounds" />
          </mxGeometry>
        </mxCell>
        <mxCell id="2iQ_Jy4r_UCa0t72AQ21-15" value="prd_key" style="text;align=left;verticalAlign=middle;spacingLeft=4;spacingRight=4;overflow=hidden;points=[[0,0.5],[1,0.5]];portConstraint=eastwest;rotatable=0;whiteSpace=wrap;html=1;" vertex="1" parent="2iQ_Jy4r_UCa0t72AQ21-14">
          <mxGeometry y="30" width="160" height="40" as="geometry" />
        </mxCell>
        <mxCell id="2iQ_Jy4r_UCa0t72AQ21-17" value="cst_id" style="text;align=left;verticalAlign=middle;spacingLeft=4;spacingRight=4;overflow=hidden;points=[[0,0.5],[1,0.5]];portConstraint=eastwest;rotatable=0;whiteSpace=wrap;html=1;" vertex="1" parent="2iQ_Jy4r_UCa0t72AQ21-14">
          <mxGeometry y="70" width="160" height="40" as="geometry" />
        </mxCell>
        <mxCell id="7bPmjpjhORHY4d73VNTJ-6" value="SALES" style="rounded=0;whiteSpace=wrap;html=1;fillColor=#d5e8d4;strokeColor=#82b366;fontStyle=1;gradientColor=#97d077;" vertex="1" parent="2iQ_Jy4r_UCa0t72AQ21-14">
          <mxGeometry y="110" width="160" height="25" as="geometry" />
        </mxCell>
        <mxCell id="2iQ_Jy4r_UCa0t72AQ21-16" value="Transactional Records about Sales &amp;amp; Orders" style="text;html=1;whiteSpace=wrap;strokeColor=none;fillColor=none;align=center;verticalAlign=middle;rounded=0;" vertex="1" parent="1">
          <mxGeometry x="145" y="260" width="130" height="30" as="geometry" />
        </mxCell>
        <mxCell id="2iQ_Jy4r_UCa0t72AQ21-18" value="" style="edgeStyle=elbowEdgeStyle;elbow=horizontal;endArrow=classic;html=1;curved=0;rounded=0;endSize=8;startSize=8;exitX=1;exitY=0.5;exitDx=0;exitDy=0;" edge="1" parent="1" source="2iQ_Jy4r_UCa0t72AQ21-15" target="2iQ_Jy4r_UCa0t72AQ21-12">
          <mxGeometry width="50" height="50" relative="1" as="geometry">
            <mxPoint x="420" y="380" as="sourcePoint" />
            <mxPoint x="470" y="330" as="targetPoint" />
          </mxGeometry>
        </mxCell>
        <mxCell id="2iQ_Jy4r_UCa0t72AQ21-19" value="" style="edgeStyle=elbowEdgeStyle;elbow=horizontal;endArrow=classic;html=1;curved=0;rounded=0;endSize=8;startSize=8;exitX=1;exitY=0.5;exitDx=0;exitDy=0;entryX=0;entryY=0.5;entryDx=0;entryDy=0;" edge="1" parent="1" source="2iQ_Jy4r_UCa0t72AQ21-17" target="2iQ_Jy4r_UCa0t72AQ21-2">
          <mxGeometry width="50" height="50" relative="1" as="geometry">
            <mxPoint x="420" y="465" as="sourcePoint" />
            <mxPoint x="504" y="360" as="targetPoint" />
          </mxGeometry>
        </mxCell>
        <mxCell id="2iQ_Jy4r_UCa0t72AQ21-20" value="&lt;font style=&quot;font-size: 14px;&quot;&gt;&lt;b&gt;erp_cust_az12&lt;/b&gt;&lt;/font&gt;" style="swimlane;fontStyle=0;childLayout=stackLayout;horizontal=1;startSize=30;horizontalStack=0;resizeParent=1;resizeParentMax=0;resizeLast=0;collapsible=1;marginBottom=0;whiteSpace=wrap;html=1;rounded=1;fillColor=#f8cecc;strokeColor=#b85450;" vertex="1" parent="1">
          <mxGeometry x="690" y="350" width="160" height="95" as="geometry">
            <mxRectangle x="240" y="210" width="120" height="30" as="alternateBounds" />
          </mxGeometry>
        </mxCell>
        <mxCell id="2iQ_Jy4r_UCa0t72AQ21-21" value="cid" style="text;align=left;verticalAlign=middle;spacingLeft=4;spacingRight=4;overflow=hidden;points=[[0,0.5],[1,0.5]];portConstraint=eastwest;rotatable=0;whiteSpace=wrap;html=1;" vertex="1" parent="2iQ_Jy4r_UCa0t72AQ21-20">
          <mxGeometry y="30" width="160" height="40" as="geometry" />
        </mxCell>
        <mxCell id="7bPmjpjhORHY4d73VNTJ-4" value="CUSTOMER" style="rounded=0;whiteSpace=wrap;html=1;fillColor=#e6d0de;strokeColor=#996185;fontStyle=1;gradientColor=#d5739d;" vertex="1" parent="2iQ_Jy4r_UCa0t72AQ21-20">
          <mxGeometry y="70" width="160" height="25" as="geometry" />
        </mxCell>
        <mxCell id="2iQ_Jy4r_UCa0t72AQ21-22" value="Extra Customer Information (Birthdate)" style="text;html=1;whiteSpace=wrap;strokeColor=none;fillColor=none;align=center;verticalAlign=middle;rounded=0;" vertex="1" parent="1">
          <mxGeometry x="705" y="320" width="130" height="30" as="geometry" />
        </mxCell>
        <mxCell id="2iQ_Jy4r_UCa0t72AQ21-25" value="" style="edgeStyle=elbowEdgeStyle;elbow=horizontal;endArrow=classic;html=1;curved=0;rounded=0;endSize=8;startSize=8;exitX=0;exitY=0.5;exitDx=0;exitDy=0;entryX=1;entryY=0.5;entryDx=0;entryDy=0;" edge="1" parent="1" source="2iQ_Jy4r_UCa0t72AQ21-21" target="2iQ_Jy4r_UCa0t72AQ21-23">
          <mxGeometry width="50" height="50" relative="1" as="geometry">
            <mxPoint x="600" y="400" as="sourcePoint" />
            <mxPoint x="650" y="350" as="targetPoint" />
          </mxGeometry>
        </mxCell>
        <mxCell id="2iQ_Jy4r_UCa0t72AQ21-26" value="&lt;font style=&quot;font-size: 14px;&quot;&gt;&lt;b&gt;erp_loc_a101&lt;/b&gt;&lt;/font&gt;" style="swimlane;fontStyle=0;childLayout=stackLayout;horizontal=1;startSize=30;horizontalStack=0;resizeParent=1;resizeParentMax=0;resizeLast=0;collapsible=1;marginBottom=0;whiteSpace=wrap;html=1;rounded=1;fillColor=#f8cecc;strokeColor=#b85450;" vertex="1" parent="1">
          <mxGeometry x="690" y="490" width="160" height="95" as="geometry">
            <mxRectangle x="240" y="210" width="120" height="30" as="alternateBounds" />
          </mxGeometry>
        </mxCell>
        <mxCell id="2iQ_Jy4r_UCa0t72AQ21-27" value="cid" style="text;align=left;verticalAlign=middle;spacingLeft=4;spacingRight=4;overflow=hidden;points=[[0,0.5],[1,0.5]];portConstraint=eastwest;rotatable=0;whiteSpace=wrap;html=1;" vertex="1" parent="2iQ_Jy4r_UCa0t72AQ21-26">
          <mxGeometry y="30" width="160" height="40" as="geometry" />
        </mxCell>
        <mxCell id="7bPmjpjhORHY4d73VNTJ-5" value="CUSTOMER" style="rounded=0;whiteSpace=wrap;html=1;fillColor=#e6d0de;strokeColor=#996185;fontStyle=1;gradientColor=#d5739d;" vertex="1" parent="2iQ_Jy4r_UCa0t72AQ21-26">
          <mxGeometry y="70" width="160" height="25" as="geometry" />
        </mxCell>
        <mxCell id="2iQ_Jy4r_UCa0t72AQ21-28" value="Location of Customers (Country)" style="text;html=1;whiteSpace=wrap;strokeColor=none;fillColor=none;align=center;verticalAlign=middle;rounded=0;" vertex="1" parent="1">
          <mxGeometry x="705" y="460" width="130" height="30" as="geometry" />
        </mxCell>
        <mxCell id="2iQ_Jy4r_UCa0t72AQ21-29" value="" style="edgeStyle=elbowEdgeStyle;elbow=horizontal;endArrow=classic;html=1;curved=0;rounded=0;endSize=8;startSize=8;exitX=0;exitY=0.5;exitDx=0;exitDy=0;entryX=1;entryY=0.5;entryDx=0;entryDy=0;" edge="1" parent="1" source="2iQ_Jy4r_UCa0t72AQ21-27" target="2iQ_Jy4r_UCa0t72AQ21-23">
          <mxGeometry width="50" height="50" relative="1" as="geometry">
            <mxPoint x="780" y="430" as="sourcePoint" />
            <mxPoint x="600" y="680" as="targetPoint" />
          </mxGeometry>
        </mxCell>
        <mxCell id="2iQ_Jy4r_UCa0t72AQ21-30" value="&lt;font style=&quot;font-size: 14px;&quot;&gt;&lt;b&gt;erp_px_cat_g1v2&lt;/b&gt;&lt;/font&gt;" style="swimlane;fontStyle=0;childLayout=stackLayout;horizontal=1;startSize=30;horizontalStack=0;resizeParent=1;resizeParentMax=0;resizeLast=0;collapsible=1;marginBottom=0;whiteSpace=wrap;html=1;rounded=1;fillColor=#f8cecc;strokeColor=#b85450;" vertex="1" parent="1">
          <mxGeometry x="690" y="210" width="160" height="95" as="geometry">
            <mxRectangle x="240" y="210" width="120" height="30" as="alternateBounds" />
          </mxGeometry>
        </mxCell>
        <mxCell id="2iQ_Jy4r_UCa0t72AQ21-31" value="id" style="text;align=left;verticalAlign=middle;spacingLeft=4;spacingRight=4;overflow=hidden;points=[[0,0.5],[1,0.5]];portConstraint=eastwest;rotatable=0;whiteSpace=wrap;html=1;" vertex="1" parent="2iQ_Jy4r_UCa0t72AQ21-30">
          <mxGeometry y="30" width="160" height="40" as="geometry" />
        </mxCell>
        <mxCell id="7bPmjpjhORHY4d73VNTJ-2" value="PRODUCT" style="rounded=0;whiteSpace=wrap;html=1;fillColor=#fff2cc;strokeColor=#d6b656;fontStyle=1;gradientColor=#ffd966;" vertex="1" parent="2iQ_Jy4r_UCa0t72AQ21-30">
          <mxGeometry y="70" width="160" height="25" as="geometry" />
        </mxCell>
        <mxCell id="2iQ_Jy4r_UCa0t72AQ21-32" value="Product Categories" style="text;html=1;whiteSpace=wrap;strokeColor=none;fillColor=none;align=center;verticalAlign=middle;rounded=0;" vertex="1" parent="1">
          <mxGeometry x="705" y="180" width="130" height="30" as="geometry" />
        </mxCell>
        <mxCell id="2iQ_Jy4r_UCa0t72AQ21-33" value="" style="edgeStyle=elbowEdgeStyle;elbow=horizontal;endArrow=classic;html=1;curved=0;rounded=0;endSize=8;startSize=8;exitX=0;exitY=0.5;exitDx=0;exitDy=0;entryX=1;entryY=0.5;entryDx=0;entryDy=0;" edge="1" parent="1" source="2iQ_Jy4r_UCa0t72AQ21-31" target="2iQ_Jy4r_UCa0t72AQ21-12">
          <mxGeometry width="50" height="50" relative="1" as="geometry">
            <mxPoint x="780" y="480" as="sourcePoint" />
            <mxPoint x="590" y="540" as="targetPoint" />
          </mxGeometry>
        </mxCell>
        <mxCell id="2iQ_Jy4r_UCa0t72AQ21-35" value="&lt;b&gt;CRM&lt;/b&gt;" style="rounded=1;whiteSpace=wrap;html=1;fontSize=17;fillColor=#dae8fc;strokeColor=#6c8ebf;" vertex="1" parent="1">
          <mxGeometry x="260" y="120" width="120" height="40" as="geometry" />
        </mxCell>
        <mxCell id="2iQ_Jy4r_UCa0t72AQ21-38" value="&lt;b&gt;ERP&lt;/b&gt;" style="rounded=1;whiteSpace=wrap;html=1;fontSize=17;fillColor=#f8cecc;strokeColor=#b85450;" vertex="1" parent="1">
          <mxGeometry x="700" y="120" width="120" height="40" as="geometry" />
        </mxCell>
      </root>
    </mxGraphModel>
  </diagram>
</mxfile>
